# xmcd
#
# Track frame offsets: 
#        182
#        12852
#        23820
#        36215
#        49350
#        61757
#        72797
#        85125
#        96490
#        108570
#        119925
#        129827
#        142537
#        154930
#        167895
#        181835
#        191107
#        204375
#        216297
#        228340
#        240055
#        251000
#        263357
#        276137
#        288935
#        304345
#        316260
#        329757
#
# Disc length: 4563 seconds
#
# Revision: 1
# Processed by: cddbd v1.5.2PL0 Copyright (c) Steve Scherf et al.
# Submitted via: ExactAudioCopyFreeDBPlugin 1.0
#
DISCID=8f11d11c
DTITLE=Various Artist - The Complete Stax-Volt Singles, 1959-1975
DYEAR=1991
DGENRE=Soul
TTITLE0=The Mad Lads - My Inspiration
TTITLE1=Sir Mack Rice - Love Sickness
TTITLE2=Rufus Thomas - Sophisticated Sissy
TTITLE3=Carla Thomas - I'll Always Have Faith in You
TTITLE4=Jeanne and The Darlings - How Can You Mistreat the One You Love
TTITLE5=Eddie Floyd - Love is a Doggone Good Thing
TTITLE6=Booker T. and The M.G.'s - Groovin'
TTITLE7=Booker T. and The M.G.'s - Slim Jenkin's Place
TTITLE8=Otis Redding - Glory of Love
TTITLE9=Mable John - I'm a Big Girl Now
TTITLE10=Mable John - Wait You Dog
TTITLE11=Johnnie Taylor - You Can't Get Away from It
TTITLE12=William Bell - Eloise (Hang on in There)
TTITLE13=Otis and Carla - Knock on Wood
TTITLE14=C.L. Blast - I'm Glad to Do It
TTITLE15=C.L. Blast - Double Up
TTITLE16=Judy Clay - You Can't Run Away from Your Heart
TTITLE17=The Charmels - I'll Gladly Take You Back
TTITLE18=Sam and Dave - Soul Man
TTITLE19=The Astors - Daddy Didn't Tell Me
TTITLE20=The Bar-Kays - Give Everybody Some
TTITLE21=Eddie Floyd - On a Saturday Night
TTITLE22=Mable John - Don't Hit Me No More
TTITLE23=Johnnie Taylor - Somebody's Sleeping in My Bed
TTITLE24=Booker T. and The M.G.'s - Winter Snow
TTITLE25=William Bell - Everyday Will Be Like a Holiday
TTITLE26=Johnny Daye - What'll I Do for Satisfaction
TTITLE27=Carla Thomas - Pick Up the Pieces
EXTD=
EXTT0=
EXTT1=
EXTT2=
EXTT3=
EXTT4=
EXTT5=
EXTT6=
EXTT7=
EXTT8=
EXTT9=
EXTT10=
EXTT11=
EXTT12=
EXTT13=
EXTT14=
EXTT15=
EXTT16=
EXTT17=
EXTT18=
EXTT19=
EXTT20=
EXTT21=
EXTT22=
EXTT23=
EXTT24=
EXTT25=
EXTT26=
EXTT27=
PLAYORDER=
